<?xml version="1.0" encoding="utf-8"?>
<!-- Generator: Adobe Illustrator 21.0.1, SVG Export Plug-In . SVG Version: 6.00 Build 0)  -->
<svg version="1.1" id="Layer_1" xmlns="http://www.w3.org/2000/svg" xmlns:xlink="http://www.w3.org/1999/xlink" x="0px" y="0px"
	 viewBox="0 0 184 27.5" style="enable-background:new 0 0 184 27.5;" xml:space="preserve">
<style type="text/css">
	.st0{fill:#A92225;}
</style>
<path class="st0" d="M18.5,27.5L18.5,27.5H0L2.3,9.6L17.9,0l13.6,16.2l0.1,0.7L17.9,1.7l0,1.8l13.7,14.1l0.1,0.7L18,5.2l0,2L31.8,19
	l0.1,0.7L18.1,8.9l0,1.8l14,9.7l0.1,0.7l-14-8.6l0,1.7l14.1,7.6l0.1,0.7l-14.1-6.5l0,1.8l14.3,5.5l0.1,0.7l-14.3-4.4l0,2l14.4,3.2
	l0.1,0.7l-14.5-2.2l0,1.8L33,26.1l0.1,1L18.5,27.5z M105,14.9v4.1c-2,1-3.2,2-4.6,2c-1.5,0-2.9-0.6-2.9-2.2
	C97.5,16.2,100,14.8,105,14.9L105,14.9z M94,8.4c2-1.4,5.1-2.5,7.3-2.5c3.1,0,3.8,1,3.8,3.9c-8.7,0.2-15,2.5-15,9.6
	c0,3.8,2.3,7.4,8.6,7.4c3.5,0,6-1,8.4-2.9c1.6,2.7,3.7,2.9,5,2.9c1,0,2-0.2,2-0.5v-5.6c-2,0.2-2-1.5-2-3.9V9.1
	c0-2.9-0.4-9.1-10.1-9.1c-1.7,0-6.2,0.2-11,3.6l0,0L94,8.4z M39.8,22c3.2,3.3,6.1,4.8,10.5,4.8C56.7,26.8,64,23.4,64,13
	C64,2.2,55.8,0,50.5,0c-2.2,0-6.2,0.8-9.9,3.9l3.9,4.3c1.6-1.8,3.6-2.6,5.8-2.6c4.6,0,5,3.7,5.1,5.5L47,10.6v5.8l8.4-0.5
	c-0.1,1.5-0.7,5.3-5.2,5.3c-3.1,0-5.2-1.7-6.5-3.3L39.8,22z M72,6.5v21h7v-21h7v-6H66v6H72z M133.4,27.5h6.6V15.2
	c3-0.2,3.6,1.2,5.3,4.9c1.5,3.2,3,6.7,7.4,6.7c0.7,0,1.3-0.1,2.3-0.5v-5.6c-2-0.2-1.8-1-3.3-3.5c-2.1-3.7-3.3-4.6-4.7-4.8
	c2.2-0.6,3.2-2,3.9-3c1.1-1.6,1.9-3.1,3.6-3.1c0.2,0-0.5,0,0.5,0.1V0.5c-1-0.4-1.2-0.5-2.4-0.5c-3.9,0-6.1,2.6-8.4,6.2
	c-1.2,1.9-2.3,3.5-4.3,3.3V0.5h-7v9.1c-2,0.2-2.7-1.5-3.9-3.3c-2.3-3.7-4.4-6.2-8.3-6.2c-1.2,0-1.8,0.2-2.8,0.5v5.8
	c0-0.1,0.7-0.1,0.9-0.1c1.7,0,2.8,1.5,3.9,3.1c0.7,1,1.6,2.4,3.8,3c-1.4,0.2-3.3,1.2-5.4,4.8c-1.5,2.5-1.2,3.4-4.2,3.5v5.6
	c1,0.4,2.4,0.5,3.1,0.5c4.4,0,6.3-3.5,7.9-6.7c1.8-3.7,1-5.1,5-4.9v12.3H133.4z M168,13.9V0.5h-7v27h7v-4.9l9-9.4v14.3h7v-27h-7v4.1
	L168,13.9z"/>
</svg>
