<svg width="44" height="29" viewBox="0 0 44 29" fill="none" xmlns="http://www.w3.org/2000/svg">
<path d="M32.2739 17.2964C29.9911 19.6475 29.8251 22.5786 29.6279 29C35.6255 29 39.7657 28.9793 41.9032 26.9079C43.9785 24.7743 43.9993 20.445 43.9993 14.6554C37.5659 14.8625 34.6294 15.0179 32.2739 17.2964ZM14.9453 14.6554C14.9453 20.445 14.9661 24.7743 17.0413 26.9079C19.1789 28.9793 23.3191 29 29.3167 29C29.1091 22.5786 28.9535 19.6475 26.6707 17.2964C24.3152 15.0179 21.3787 14.8521 14.9453 14.6554ZM29.3167 0C23.3295 0 19.1789 0.0207143 17.0413 2.09214C14.9661 4.22571 14.9453 8.555 14.9453 14.3446C21.3787 14.1375 24.3152 13.9821 26.6707 11.7036C28.9535 9.3525 29.1195 6.42143 29.3167 0ZM32.2739 11.7036C29.9911 9.3525 29.8251 6.42143 29.6279 0C35.6255 0 39.7657 0.0207143 41.9032 2.09214C43.9785 4.22571 43.9993 8.555 43.9993 14.3446C37.5659 14.1375 34.6294 13.9821 32.2739 11.7036Z" fill="white"/>
</svg>
